<?xml version="1.0" standalone="no"?>
<!DOCTYPE svg PUBLIC "-//W3C//DTD SVG 20010904//EN"
 "http://www.w3.org/TR/2001/REC-SVG-20010904/DTD/svg10.dtd">
<svg version="1.0" xmlns="http://www.w3.org/2000/svg"
 width="450.000000pt" height="450.000000pt" viewBox="0 0 450.000000 450.000000"
 preserveAspectRatio="xMidYMid meet">
<metadata>
Created by potrace 1.11, written by Peter Selinger 2001-2013
</metadata>
<g transform="translate(0.000000,450.000000) scale(0.100000,-0.100000)"
fill="#000000" stroke="none">
<path d="M997 3543 c-4 -3 -7 -192 -7 -420 l0 -413 140 0 140 0 0 280 0 280
280 0 280 0 0 140 0 140 -413 0 c-228 0 -417 -3 -420 -7z"/>
<path d="M2750 3410 l0 -140 280 0 280 0 0 -280 0 -280 140 0 140 0 0 420 0
420 -420 0 -420 0 0 -140z"/>
<path d="M997 1793 c-4 -3 -7 -192 -7 -420 l0 -413 420 0 420 0 0 140 0 140
-280 0 -280 0 0 280 0 280 -133 0 c-74 0 -137 -3 -140 -7z"/>
<path d="M3310 1520 l0 -280 -280 0 -280 0 0 -140 0 -140 420 0 420 0 -2 418
-3 417 -137 3 -138 3 0 -281z"/>
</g>
</svg>
